/* XPM */
static char *oie_sJ1diW1taqlH_2_1650893865[] = {
/* columns rows colors chars-per-pixel */
"50 50 76 1 ",
"  c #171635",
". c #181736",
"X c #191836",
"o c #192A34",
"O c #2E2E36",
"+ c #262C3A",
"@ c #2A2C3C",
"# c #302E39",
"$ c #2E313D",
"% c #34333D",
"& c #3A363E",
"* c #3C383F",
"= c #3D224F",
"- c #2D3142",
"; c #353542",
": c #393742",
"> c #363846",
", c #3D3A44",
"< c #353648",
"1 c #363A4A",
"2 c #3D3D4A",
"3 c #3E2350",
"4 c #423E45",
"5 c #493F47",
"6 c #413F4A",
"7 c #7B337C",
"8 c #0B4954",
"9 c #3E404D",
"0 c #36494F",
"q c #3D4152",
"w c #364B50",
"e c #384950",
"r c #257A7D",
"t c #454046",
"y c #494246",
"u c #45424C",
"i c #4B454C",
"p c #4E484F",
"a c #50464D",
"s c #524A4E",
"d c #59504F",
"f c #454452",
"g c #4B4651",
"h c #474956",
"j c #4D4A52",
"k c #474958",
"l c #4D4B59",
"z c #534C53",
"x c #594F54",
"c c #524E5A",
"v c #565056",
"b c #5B5255",
"n c #55515B",
"m c #5B535B",
"M c #605557",
"N c #60565C",
"B c #64595E",
"V c #685A5A",
"C c #565260",
"Z c #5C5662",
"A c #625B62",
"S c #695F65",
"D c #567377",
"F c #577478",
"G c #587478",
"H c #A33C8D",
"J c #E65FFA",
"K c #E95FFA",
"L c #E760FA",
"P c #E861FB",
"I c #2BAEA9",
"U c #AAB6B4",
"Y c #FD8FFF",
"T c #FD90FD",
"R c #FEBFF4",
"E c #FFC0F4",
/* pixels */
"CnlChBnhfllfn16u2iyutsyytu,&:%%*4*4*&***yy5yy%yaia",
"llCClcfunl9ju2xzjiuyauaiuy64:%4t5%#4O4*&*55ys,4sys",
"nlc1Aj2cmff2f2npi6;ua6y6yuy6,&y%,%*%**&***y*44su6,",
"kfnjclmn2gfuu6znu>tpp6p,iiu,,%4t**yyy4R*4&45taut,s",
"ljnAmgcgzcxu62gxu2xuypyiat%%>yy4%y444%T4yyyi*46y4i",
"cZSmCccjnchu>cx>uupujuxit>,u*5:4yy;t*&Yiyya*,isu4*",
"ASZncmjcv5jhiuazuiuzzppz9t*y4444tyt,yEKEy&&tyy;4*i",
"ZCZjncncjh>juuphc6zup6gp,usi4p6&t,tt:YKR**44t:ta4t",
"ZZknhjcn622jzixguigjpizpbui6t,&44544,YKYRtyti,5t4y",
"Clllmcfgfjgufzgxupxiu6xhu6p666,O55#44K%KYRyt44%,*a",
"Zl1kcchg6hxxuizxhszpzpbjjvpHHHH754:;54,KLY4p,4*:4t",
"q2fkzfff>n2uzzh6gzgc5zxiuiHHHHHH74444:4iLYRu&&5isa",
"lkczjl6f6gazzxzupugiuuhgjHHH7Ho==7:44s4itLYR4uai,t",
"kqclfzfgip6hhzgu6u6z,pbNiH777o00 =745444tLLR4yi4yp",
"ZZAz1zgv65zpzi,666zuuuEf2>77oLYR.67544tiLTT*yy4ia4",
"klff1czf2fhiu>;;,pzg888T;277o000X 7*44i,LLR45*i6p6",
"khh9fuupjgi2u;,ypxx8rr873zH700JY  7adyy6YR:4yit6:t",
"ffuzuuzvui2ys2u:Mb8rIr8773HH0GDD H7s64,JYRyi4yyyyb",
"nclvfubji;>ui;izzveII6r8H737 =6=H7u6siKKYKp,i4aixs",
"ncnjlgu92xppzuspzeeDgu,@HH777 =77iiui,JYKYLii6si2z",
"lhnbgguu6zupjxubz0Di622.688.  ..Dutp>;tEYLYR:6;,pp",
"lcmlf9u9zgix6ssbz0Uhup2.=8I.=37XeDut6y0DR4JKR45isa",
"nffcqfgixmjipmMnp0U9i6;.=8I337H8oo0y6DooRyys66sxjx",
"cgg2uujxhgfizNmxgjuij2u.=7rI7HH588rr0ooRRpipupypzx",
"lh9ufhpzzg6zz5zpgzBfg-.==78I7H66i88rroLLxpxpuyzzap",
"l92chszbip6j6fh>zfgf6;.=778r7Hx5szt88LTLLYRpvuxx2i",
"f9juzfuhxhp6gu2uzz62-;8rI378I55zzs6jLYYEREuuuyuxzi",
"qffjczuicg;uf6zix625;4888rI8r5xxiiuzLTRjuzucuuzugx",
"-1ncvu>z2u2zxjz5zgu-,;HHH88855m5ujjyzJYR262iuxu2u2",
"gpbj9,ujpupbjxhx6z-;:H=77HH85a:6yz:p6JYR,2u56juuui",
"ggi26uuuzpxzizh65<@6673=777H44,,spssiLYRii52uu:uut",
"gng21>zibcuzcoo26,>4487=3=77Hy4,sbbzuKYujguuytuupz",
"2f<;iuxicuuioo00o0t:888777H77HssbupuPYR6xuuuiyxuxg",
"5f56uiijpuiuo0DFoD8888rrr88HH8INsRpLRRxiuuzbpuzpu2",
"zufu6yzp22%u0D9;D8888rrsjyy88rIUuYuYR,xiubNpcbzii,",
"zug62yuu,;>,Dz2,tx8rrru6t,tps8D0DYYR6i6pbmzzujiv,6",
"ciiip6pu24uuyu;>s,>6;s6yuszybz00ULRRpxszz6hxxjvu>u",
"c6cuugy6;tp,uyt6466:466iupsbbb60DUt6upjy6gizuu;;u,",
"zjgx66pp,uti%uy6x:,4p:4;yxuzjz6Y0DUUx6pzujvu,2u,,u",
"fguuiixjppy2yu,t:&,a6*6ixbszzuuK000D:uzjzuuu>;uu6t",
"mu5igzMgip,;;&:,%::&444yVbxzxgu6zump6bpz,2uu6zi;py",
"A<fhzpghu>>y446&6&,4*yazsvjcjzizzxpuiiu66uizp6jsau",
"66zz6gjg66,,%O%,*%*yaysupgbuxcNmxj,ua6h4,ibippzizx",
"cg6upp5,<6::%%&&%*yyy6yzsxixcxvxu>i6tu,iyp>4upjzjj",
"62gguupzz;6%,%*4&*54,udppxjv6fghuuijxi,yupuuxpzijx",
"h5622ihsu$,+t,444*&*4ysg,ubj62pifup266iuyzy2uiupjj",
"cgggixp2;;ty444*5***%yyusuij>xi62piu6,4ig2ypzyugui",
"j2z6ug26u;4iyiyt4%&44:uyjtxsui66guuu6ap>tp6upuzzjx",
"ggj2zzig6:pii64t44*4yyaaitt:uphpbxuuvbuuupipbspxbN",
"gp;uzpi66iyp6,444&Oyyadyuu6sbsjxixjxji2tuuzibvbbBb"
};
