/* XPM */
static char *oie_sJ1diW1taqlH1650889312[] = {
/* columns rows colors chars-per-pixel */
"50 50 44 1 ",
"  c #2C2F3C",
". c #2E303D",
"X c #35343E",
"o c #39373F",
"O c #3C383F",
"+ c #2F3240",
"@ c #353642",
"# c #383741",
"$ c #373845",
"% c #3C3A44",
"& c #303548",
"* c #3D3D49",
"= c #3B3E50",
"- c #423E45",
"; c #413F49",
": c #3F404E",
"> c #3E4254",
", c #454046",
"< c #484247",
"1 c #45424B",
"2 c #4A454C",
"3 c #4E484E",
"4 c #514A4E",
"5 c #454452",
"6 c #4A4651",
"7 c #474857",
"8 c #4D4952",
"9 c #4D4B59",
"0 c #534C53",
"q c #584F52",
"w c #524E59",
"e c #575056",
"r c #5A5155",
"t c #55515B",
"y c #5B545A",
"u c #60565A",
"i c #63595D",
"p c #685A5A",
"a c #545260",
"s c #5C5760",
"d c #5C5864",
"f c #625B63",
"g c #685F65",
"h c #686066",
/* pixels */
"tt9a7gt77986t$12*322,422<<-%%@#%---OOOOO<<<<<%2244",
"9wta9t55ew595:rw82124242221-%X-<-OX-o<-O<<<<4%-q24",
"a9t*f95wt5516*e881$13121<12,,%2OOO-OOOOOO<4-,,42,-",
"75y9twee:85515wy2%143,31232--X-,-%<<4----O<<,42,-4",
"99tgt9w8w0e5118e:1r2232241@@%<<,%<-,-O<-<<<4-,,3-2",
"wsgsyww0tt82$0e*528282r31%-<%<%,<<O<OO<4<<3%-<41,-",
"fgswwfwwt27882081218083011%2,---12<-<---<O-<22%,%4",
"fas9wwew78*8258801w28183-14414,%<-,<--33-O,,<%-4-,",
"df7w5wwy;;;006r818808603r1211%%--4--O2%#%<314-<-1<",
"a9w9ft5578662w8022r221r321311,-X32o-<OO-<-<<-;o--2",
"d7=7ww7656ee28008ww3w3yw8r86;X@1<---2------4----,2",
";577w656*e150081883w20026612#%22-----O<2-2-<-%2<44",
"a7ww9w56;6800ww2327231609*%-@#2,1-%--4-2<1<%-233-2",
"77ww505660168q652120*8yy81%11-,4%#--<2--<3##-<3-23",
"dsg9*w6e5100w5*1*2821286**;0,%-%O<O<<-<2<1%%22<42,",
"79;7*w05;5622%%%%3w8100*$;312%2%<3---<3;<%--;%3<3,",
"977;6510882*1%%20rr0r81-%0211%;43,,44<<;,,%<22<-%<",
"566w11qw2612012%rury71*28101313143401<-%-323;<<32q",
"twww56r88%*12$30qy00811%X,;<114%;22102%,422-3-43q0",
"ywt98855*e308208qyy081*@1121322<33222;1412<34;43-0",
"97yt886110288q2r0ie81:*--22-22%;#<26%@,<2421%<#-43",
"9ttt7*110880100r0i96621$%%-@1%%-<321;4-24-2%41<3q8",
"t55t;7800u068yuy801151%%-<-%%-%43212143r4324-10rq0",
"t87:51w068660iy08w180*2*%#2<--212%q--1u814331323qq",
"9715588ew21802w83wi55@%%;12,,2<-24022q81r0e6130088",
"w:*w809y2w50156*85821@1$2,-,%2q4q01330r30y3802rr12",
"5:82w218t86181;20e:1@$@1%-,-<<24q0;0rwr00262222008",
"5587ww2808$221w2e1*2@1%X#--%,2qr62203r80102921w280",
"&$rte1*012*wr8w2032+%%%,%,,X,<r2238106*111*22e1*21",
"78y91*38828e8r8e1w@$%%%-%,XX<4-;20%312;1**22186122",
"886*121188e06w8*2$.11%%,O-O,-<-%008q8283221121%111",
"8t8*=*82re2wq2**1%%1-%,OO%OO22--4rr020010621212280",
":5$$6208016628621*1-3%---2-<<444r2425%81r2313202w3",
"22121280828116w*10<0;#42<<<334qu4<382303520y320021",
"05251208**$1181@320110q442<3qqr12r232*e21ru30r882*",
"91811222;$%-10;-20120<2;1-<4048202281313rye0888r1*",
"r2838131;;1<3;%%4;%*%412<q02r42;81268e4e018e08r2%1",
"w1922222%13-<2<;1;1%%11213qrrr12822%1883:82925$$11",
"988e1283;213%22;r%%,3%,%3q2000111,20e18028e2**11-1",
"882152e8632%21;1%%%42%,3qr0002211223%2e3w226$*1111",
"e51860u836%@%%%-$%%O-,,2pr0qe85202y01r60%:21:83%32",
"f*6608866%*21--%,O%,%244qewew0200q3136211130310882",
"6;8016w6;;;%#XO%%o,<434233e600uyew*2812;,3e388e30q",
"w616301;$1%%XXO%X-<,<,240000tret6%611<;222%1338880",
"517316800%1@-O%-O-<,%2r33q8r1188116006-21811r8030q",
"661*;8601@%.<-<-,OO-,244*2r81*86128*11223q2-132898",
"07666081$@,<,,--,-O%O<210280*w8;18821;163%33822822",
"0;0128;11$,223<,,OO,<%1331q022116112;02%231282q8we",
"606;0058;;33<1;<<-O<<244311%1388ee<2er121830qq0qyu",
"68*60022;323;-<;-%X2<4q23<-0r08r8rw006;12203y0rype"
};
