/* XPM */
static char *oie_sJ1diW1taqlH1650889068[] = {
/* columns rows colors chars-per-pixel */
"50 50 248 2 ",
"   c #34333C",
".  c #3A363E",
"X  c #3D383F",
"o  c #2C2E39",
"O  c #4A1C3B",
"+  c #5C193A",
"@  c #691C3B",
"#  c #7A1B37",
"$  c #492A3C",
"%  c #582C3B",
"&  c #48353D",
"*  c #5A363D",
"=  c #7C242E",
"-  c #642A3C",
";  c #682939",
":  c #772836",
">  c #64333C",
",  c #6C353C",
"<  c #67393B",
"1  c #72353B",
"2  c #7B3A3B",
"3  c #753738",
"4  c #353542",
"5  c #3A3742",
"6  c #363845",
"7  c #3D3A43",
"8  c #373A4B",
"9  c #3D3D4A",
"0  c #36374A",
"q  c #2C3243",
"w  c #561942",
"e  c #4D1545",
"r  c #721744",
"t  c #482847",
"y  c #5D2B44",
"u  c #522A44",
"i  c #423D44",
"p  c #4C3C45",
"a  c #423E4A",
"s  c #4B3D4A",
"d  c #473543",
"f  c #5B3143",
"g  c #543C45",
"h  c #543E4B",
"j  c #5A3847",
"k  c #4A3850",
"l  c #4B2D50",
"z  c #632643",
"x  c #7B2744",
"c  c #633345",
"v  c #6B3C42",
"b  c #683844",
"n  c #773947",
"m  c #753755",
"M  c #3D4152",
"N  c #3F414E",
"B  c #454046",
"V  c #4B4246",
"C  c #45424C",
"Z  c #4B454C",
"A  c #4D484E",
"S  c #53444C",
"D  c #5B444C",
"F  c #524A4E",
"G  c #5D4449",
"H  c #454452",
"J  c #4B4652",
"K  c #4D4A53",
"L  c #4D4B59",
"P  c #474858",
"I  c #524452",
"U  c #524C53",
"Y  c #594E53",
"T  c #524E5A",
"R  c #5C4655",
"E  c #565056",
"W  c #5B5154",
"Q  c #55515B",
"!  c #5A535C",
"~  c #5A504F",
"^  c #64464B",
"/  c #764247",
"(  c #664A55",
")  c #774456",
"_  c #62575C",
"`  c #7E505D",
"'  c #595461",
"]  c #625B62",
"[  c #6A5A64",
"{  c #77526D",
"}  c #871D2E",
"|  c #8E1D3A",
" . c #8B292B",
".. c #95272B",
"X. c #95342C",
"o. c #882838",
"O. c #982837",
"+. c #88373B",
"@. c #983535",
"#. c #8A332E",
"$. c #A52D29",
"%. c #A93228",
"&. c #B5332A",
"*. c #A82C37",
"=. c #A83739",
"-. c #B83639",
";. c #B62E38",
":. c #C73D3A",
">. c #CC3931",
",. c #864038",
"<. c #EB433B",
"1. c #C1453D",
"2. c #871B48",
"3. c #8E1B54",
"4. c #862847",
"5. c #893848",
"6. c #9A394A",
"7. c #9B2353",
"8. c #883756",
"9. c #9A3756",
"0. c #932948",
"q. c #A82B4C",
"w. c #B52A47",
"e. c #A83748",
"r. c #B63547",
"t. c #AB285A",
"y. c #B62A55",
"u. c #A43955",
"i. c #B83D5B",
"p. c #B22C64",
"a. c #902F74",
"s. c #C63848",
"d. c #D7394B",
"f. c #C83655",
"g. c #D93959",
"h. c #C32D50",
"j. c #E53A59",
"k. c #E63C4E",
"l. c #CA3866",
"z. c #D73B66",
"x. c #D03D77",
"c. c #E73865",
"v. c #F43D67",
"b. c #EF3D72",
"n. c #834449",
"m. c #95434C",
"M. c #874858",
"N. c #95465B",
"B. c #97545A",
"V. c #B44449",
"C. c #A64556",
"Z. c #B84759",
"A. c #A64B52",
"S. c #954B66",
"D. c #92516A",
"F. c #AC4369",
"G. c #AF506B",
"H. c #B86670",
"J. c #D94847",
"K. c #C4455D",
"L. c #C94657",
"P. c #D44456",
"I. c #D65358",
"U. c #CB4C49",
"Y. c #E6484A",
"T. c #E64659",
"R. c #F84959",
"E. c #E9545B",
"W. c #FC5958",
"Q. c #C84862",
"!. c #D64866",
"~. c #C85666",
"^. c #D85667",
"/. c #D64678",
"(. c #C55575",
"). c #D95978",
"_. c #E84964",
"`. c #F74967",
"'. c #E45468",
"]. c #FE536B",
"[. c #FD596C",
"{. c #F75566",
"}. c #E64876",
"|. c #F74975",
" X c #E55778",
".X c #FD5372",
"XX c #FE547B",
"oX c #FD5B7A",
"OX c #F55A76",
"+X c #D7626C",
"@X c #D76877",
"#X c #C26E74",
"$X c #E8657A",
"%X c #FC627C",
"&X c #FF6B7C",
"*X c #F46778",
"=X c #EF7074",
"-X c #BB2B88",
";X c #D63384",
":X c #A95B85",
">X c #B46993",
",X c #DD4D8B",
"<X c #D1538E",
"1X c #E94B88",
"2X c #F74B86",
"3X c #E85888",
"4X c #FD5C84",
"5X c #F9598A",
"6X c #FB5A96",
"7X c #E64F9A",
"8X c #D26E8D",
"9X c #EB6886",
"0X c #FD6283",
"qX c #FA6889",
"wX c #FA7587",
"eX c #FD6493",
"rX c #FB6898",
"tX c #EA7B98",
"yX c #FB759A",
"uX c #E67294",
"iX c #F95BB3",
"pX c #F05AA5",
"aX c #D36FA4",
"sX c #FC69A5",
"dX c #FA75A8",
"fX c #FC6BB6",
"gX c #FE7DBC",
"hX c #FB75B7",
"jX c #E774AE",
"kX c #FE69C9",
"lX c #FA7AC8",
"zX c #FB70D9",
"xX c #ED8592",
"cX c #FC8C99",
"vX c #FC94A5",
"bX c #FC84B8",
"nX c #FC97B6",
"mX c #F084AE",
"MX c #FD86C9",
"NX c #FA98C7",
"BX c #FD8CD5",
"VX c #FB96D6",
"CX c #E784C6",
"ZX c #FFA5D8",
"AX c #FCB1D1",
"SX c #FA9AE5",
"DX c #FF8EE3",
"FX c #FDA7EC",
/* pixels */
"' T L ' H ] Q P H K L H T 0 C C 9 A Z B B F V Z C C 7 4 i d d d i X i . . X X X B V B V B . B V A Z ",
"L L Q ' P Q H C T T 9 T C 9 E U A Z N Z A C Z V B B C s d 5.m./ B     & o B X X X B i V A X N ~ V F ",
"Q L L 8 ' K 9 T Q H H C H 9 ! A A 9   C S p p p p p Z I ) K.K.n X   X   X X . X X X V i N i ~ B N X ",
"P H ! K ! L ! Q 9 J H C C 9 K ! C 6 B F D % , - f S ! { >X}.P.M.i X V B V X X X i X i V B A B i X F ",
"L L Q [ ! K T J U U T H a 9 I R a a Y Z f : = # : * { :XuXOXL.5.& B X i &   i B V V V F X B N V i A ",
"Q ! [ ! ! L T K E T J C 0 U D t j Z K s j = } } +.M.H.(.^.d.r.@.3 * . V . . B V V B V X 7 V F B i X ",
"' [ ' Q T ! K T Q C K H Z Z j : - j a S ^ +...O.e.).+XI.-.-.&.$.#.< V X B N X p V   . V V V . 7 . A ",
"] Q ' K Q T Q T K L 0 K a Z c : # % y y 5.G.~.~.~.=X=X'.L.L.s.;...< i B X X V f * & & X B 6 N F 7 B ",
"] ] P ' H K Q ! N 9 9 K I h b # } : : o.N.xXxXwX&XwXwXqXrXqX).L.*.1 g & p S j , : , G B S 7 i B B B ",
"' P P P ! T N H H K J Z j c : o.O.w.e.V.~.xXcXcX&XqXyXhXMXMXsX).Q.C.m x 2 / S.F.Z.e.2 < i i   9 7 Z ",
"' L M H Q Q H K H J E Y c : o.@.s.!.E.E.=XcXcX&X[.5XdXMXSXBXMXsX3X/.l.q.-.Q.@X9X XL.=./ & B 7 7 B B ",
"M M H H K H H H 0 E a p , o.e.Q. X0X[.[.&XvXbXqX X(.>XjXgXhXfXyXqX5X}.g.f._.4X0XoXQ.+.< & . V V F A ",
"Q M Q L K K H H a Z F G 2 =.Q.uXdXeX4XXX6XMXBXhX<XD.D.(.5X2X4XqX=XtX$X}.z._.[.{.E.A.^ & p C V Z X V ",
"P M Q L H U C Z H Z & ^ 6.Z. XdXdXsX6X6XsXgXMXlXjX>XG.)..X|. X+XH.xXtXeX2X`.W.J.V./ & . i i A 7 V A ",
"' ' ] K N U K E C p 1 @.V. XrXyXrXsXsXfXsX6XfXCXSXCXtX9XqX0X).B.M.8XtXyX5X.XE.e., & . . Z C B Z A i ",
"L L H P 0 F ^ < < 3 @.s.T.eXrXrXeX4XeXeX5X.X4XdXmXaX8X(.^.*X$XG.A.8XqX$X).4X3Xu.; O $ d i 7 V C Z N ",
"P P K 9 V V < X.X.X.-.T..XqXeXeX0X.X.XXX|.`.`.OX/.F.7.7.i.^. X^.I.$X$XI.P.3X7XG.4.+ e t p V C B 7 B ",
"9 H H T C V #.%.&.>.Y.].oX%X%X4XoX].].].`.T.P.U.r.o.# | q.i.L.L.^.@X9X^.!.,XpX,Xq.x w t a V B V Z W ",
"Q T K K H S +.%.>.<.R.%X%X{.`.].|.XX%X%X^.r.O.b y r r t.p.7.x m M.8XtXyX3X2X|.b.g.6.c 9 C X S A Y A ",
"Q T ! K K h < #.&.<.].%X&XW.R.`.|.XX4XoX!.6.- $ t + 2.l.z.4.t d ] aXCXMXhX6X5X2X1XF.n j < * v g d U ",
"T P ! E J Z p , &.Y..XqX&XW.W.v.b.b.|.|.L.n % O e w 3.p.l.8.t 5 I >XCXDXMXfX6XiXiX<X0.: = #.: > G A ",
"P Q ! K P 9 C g =.Y.oXeX&XW.R.`.c.z.c.j.K.) t e r r 3.p.p.8.j s ( :XaXjXjXsXsXkXzX<Xw.$... .: , G A ",
"Q C H L 9 J A ~ A.T.qXcX&XW.R.R.j.w.h.j.K.b t % r t.p.7.0.p.9.m ^ m.V.Z.Z._.oXfXzXpXz.;...= b ^ F E ",
"Q P A N C J ( M.N.Q.9XcXcX&X%X{.g.*.h.d.Q.n u + 2.t.7.4.x t.t.a.M.u.r.*.=.P.qXhXzXiX`.s.O.1 g Z F T ",
"L H C C H R M.Z.A.B.H.xXvXvXmX5Xl.q.w.g.g.4.@ @ r 3.4.z y 4.7.t.p.x.z.r.;.).jXlXfX6X`.d.o., G U F Z ",
"L N 8 E J ( A.P.u.n.B.$XvXAXZXgX,Xt.h.c.c.w.| # # # - % u - x t.;X7X7X/.(.aXBXlX6X|.g.w.O.; b R a Z ",
"H N K C U S 5.=.=.X.%.I.xXAXFXVXpX/.c.c.v.g.y.O.@ % % % - u m a.-X;X5XrXCXSXFXMXsXz.q.| } # : b D F ",
"N H H A ^ v 2 X.X.X.%.1.+XnXAXZXMX7Xb.c.c.g.y.o.+ + - # 4.c l -X-X/.5XgXSXFXSXgX5Xl.q.} } = : c S U ",
"q 0 ! Y / 3 3 < > 3 #.&.I.wXnXNXbXrX}.h.w.w.0.x % - 4.y.y.o.8.p.,X*XwXgXDXBXlXrXOXf.*... .o.c d s 9 ",
"J I W D 1 = 3 F K p 3 @.:.{.wXmXcX9XK.*.O.*.o.b > o.w.g.j.w.u.~.qX&XwXdXhXfXeX.X_.k.s.;.*.+.g a C Z ",
"H J Z 9 g b * C A U ~ / V._.oXqX$XL.=.*.=.L.Z.e.@.r.k.j.k.s.s.^.wX&X.X4X5X6X0X'.d.k.j.k.f.6.d C C C ",
"K Q K 5 i 5 F p D G G ) Z._..X.X_.r.*.;.s. X^.P.d.Y.T.T.g.s.L.'.*XOX.XXX4X%X[.P.s.f.f.z.Q.9.D C A F ",
"9 H 0   Z a j y z z m i.Q.{.].`.T.g.d.d.T.|.|.v.k.`.T.Z.6.r.s.L.!.}.5XsXdXqX{.Z.m.n.N.9.M.) ( Z F A ",
"C C a C C s f z r z q.g.`.[..X].].].`.`.v.c.c.j.j.j.f.N.) i.f.f.f.1XdXBXVXuX!.6.b h ^ ( I J K A Z 9 ",
"K H C C a s h f t y o.s.J.W.[.oXXX.X[.R.R.j.d.h.r.9.D.:X>XaX,Xx.x.uXNXZXNX8Xq.x y z c l F W K Z C 9 ",
"U C Z H i C Z p p $ > O.:.Y.[.0X0X[.R.R.Y.d.s.e.6.m D.aXlXlXiX7X,XgXVXNXjXG.x @ @ z z j s K A E i 9 ",
"! C K Z Z B A N N & > ..%.:.E.&X=XY.:.:.J.I.^.@XH.H.#XxXbXBXkXfXpXhXbXtX~.N.c y c u f h U K U Z 4 C ",
"K C K Z C Z Z Z 4 p 1 #...*.Z.+X^.-.&.&.J.*XwXwXxX=X=X=XyXfXkXiX6X6X3XQ.=.n S Z k I s U a H 0 4 B 9 ",
"T A K T C C K Z B B * , ; 3 n.B.B.2 X.:.Y.W.=X+X~.I.I.'.4XeX6X7X,Xx.i.6.n g S F a Z U C 7 a 9 i 9 B ",
"Z K C 9 C C E A A V V d g p V S V & ,.U.Y.W.Y.V.=.@.V.L._.{.{._.l.t.O.v & V Y A U C C Z 0 4 C C 9 B ",
"! C C J Z U _ Z J A 7 o 4 5 7 N . 4 , =.:.J.-.X.,.2 5.r.d.T.T.Z.u.4.o.> i W Z F 9 9 C C a A Z 7 A Z ",
"_ 0 C Z K K J J C 7 5 Z B 7 B   B . * +.O...+.v G G v @.:.j.P.F.) : = > Z Z Z 9 B C Z T Z C K A V Z ",
"H 9 K U C Z A Z 9 i 9 7 . o   X X   * < 3 : , u k Z ^ < @.g.!.S.D 1 : > S a C i 7 A E C K A Y Z Y E ",
"T J C C K A C 9 0 9 5 5       . o X V V g & u t t h Z ( M.l.Q.N.j ; = > a C N V V Z 7 i Z A A K A K ",
"C N J Z B C A K U 6 B o N   X i . X B i 7 B I l e l l L h N.9.5.3 : , G Y Z 9 Z C A Z C E A A A K U ",
"J C a 9 N Z Z E N o X o i X i i i X . X i Z I s 0 e l l a h ) +.#.< G 5 i 9 C C V F C 7 C Z Z A K A ",
"U H K Z V T A N 6   N B i i i X i X X X . C s a k 0 l k 7 U G < 3 ^ S C C 7 C C A 9 V A A Z C Z C Z ",
"U 9 K C C A N C C   B Z V A B B N   . & i X s J h k I I Z V i V G V i C 9 A A 7 C V N C A C E K L W ",
"J K K 9 U U C A i 7 Z Z C B 7 B B i X B V V V F A B B 4 Z C A A R ~ C Z Y Y C Z C A A A W F A U _ _ ",
"Z J 6 C Y Z Z C 9 Z V K B 9 B 7 7 . o V B F ~ V C C N A W A K E U U U U A Z 9 N B C A A W Y W W _ W "
};
