/* XPM */
static char *oie_sJ1diW1taqlH_4_1650889277[] = {
/* columns rows colors chars-per-pixel */
"50 50 207 2 ",
"   c #0A1304",
".  c #0D1A09",
"X  c #15190A",
"o  c #26190F",
"O  c #341F0C",
"+  c #261C12",
"@  c #2A1F13",
"#  c #1C2914",
"$  c #35200D",
"%  c #2B2012",
"&  c #2D251C",
"*  c #342414",
"=  c #342815",
"-  c #3F2D17",
";  c #32251B",
":  c #332A1D",
">  c #3E2C19",
",  c #392713",
"<  c #3C301C",
"1  c #3B3327",
"2  c #302E39",
"3  c #2F313E",
"4  c #35333D",
"5  c #3A363D",
"6  c #3C383F",
"7  c #3B3630",
"8  c #2C332E",
"9  c #402E16",
"0  c #402E18",
"q  c #41251A",
"w  c #53211A",
"e  c #43321A",
"r  c #49351A",
"t  c #4D391C",
"y  c #523C1E",
"u  c #593F1A",
"i  c #413220",
"p  c #4C3D25",
"a  c #45382C",
"s  c #473D29",
"d  c #523D20",
"f  c #443936",
"g  c #44383A",
"h  c #53323B",
"j  c #5B2922",
"k  c #6E3A3F",
"l  c #673338",
"z  c #7D392C",
"x  c #3F432A",
"c  c #3B4933",
"v  c #58411D",
"b  c #45432A",
"n  c #4B452D",
"m  c #45462C",
"M  c #574124",
"N  c #5A4221",
"B  c #55422A",
"V  c #5B4628",
"C  c #5E492B",
"Z  c #4D4239",
"A  c #494730",
"S  c #574634",
"D  c #51443E",
"F  c #5F4E3E",
"G  c #4D553D",
"H  c #4D5E3D",
"J  c #46563A",
"K  c #51543A",
"L  c #644B23",
"P  c #624A2B",
"I  c #6E4E3D",
"U  c #6B4736",
"Y  c #7B493E",
"T  c #76553D",
"R  c #4D633F",
"E  c #50613F",
"W  c #292F46",
"Q  c #272E47",
"!  c #2C3145",
"~  c #2B314A",
"^  c #353542",
"/  c #393742",
"(  c #363846",
")  c #3D3A44",
"_  c #333549",
"`  c #363A4A",
"'  c #3D3D4A",
"]  c #313751",
"[  c #343955",
"{  c #3A3F5E",
"}  c #363C59",
"|  c #423E44",
" . c #413F4A",
".. c #483E46",
"X. c #3E404D",
"o. c #3E4152",
"O. c #3D415F",
"+. c #3F4463",
"@. c #454146",
"#. c #4A4346",
"$. c #45424C",
"%. c #4B454C",
"&. c #4E494E",
"*. c #494C46",
"=. c #50464D",
"-. c #524A4E",
";. c #544944",
":. c #4D5146",
">. c #4E504D",
",. c #51524D",
"<. c #535B4A",
"1. c #454452",
"2. c #4B4651",
"3. c #474956",
"4. c #4E4A52",
"5. c #41435C",
"6. c #4D4B59",
"7. c #474958",
"8. c #534C53",
"9. c #594F54",
"0. c #524E5A",
"q. c #4F5150",
"w. c #555254",
"e. c #5C5155",
"r. c #575E52",
"t. c #595A54",
"y. c #55515C",
"u. c #5B535B",
"i. c #614841",
"p. c #665F45",
"a. c #735944",
"s. c #605557",
"d. c #60565C",
"f. c #64595E",
"g. c #4E6440",
"h. c #546545",
"j. c #5B6745",
"k. c #556349",
"l. c #576A4A",
"z. c #5A6D4B",
"x. c #5D664B",
"c. c #5D714E",
"v. c #5F7A4F",
"b. c #5D6B51",
"n. c #586152",
"m. c #5F7351",
"M. c #67654D",
"N. c #6C6942",
"B. c #7E6C4F",
"V. c #7A674D",
"C. c #64764E",
"Z. c #62695B",
"A. c #627551",
"S. c #657C53",
"D. c #6A7D55",
"F. c #6C7E5B",
"G. c #697555",
"H. c #7B7655",
"J. c #414666",
"K. c #464C6C",
"L. c #464A6A",
"P. c #565260",
"I. c #5B5662",
"U. c #5D5D6F",
"Y. c #565667",
"T. c #4C5171",
"R. c #5D5D73",
"E. c #565C7B",
"W. c #595F7F",
"Q. c #505575",
"!. c #625B62",
"~. c #695F65",
"^. c #605F71",
"/. c #6C6C60",
"(. c #606276",
"). c #647562",
"_. c #9E2931",
"`. c #863934",
"'. c #923734",
"]. c #865443",
"[. c #845B47",
"{. c #855C48",
"}. c #83614A",
"|. c #8C6651",
" X c #6A8157",
".X c #6E835B",
"XX c #6F8B5E",
"oX c #668059",
"OX c #71865C",
"+X c #71895E",
"@X c #758463",
"#X c #748960",
"$X c #7B8F67",
"%X c #7B9167",
"&X c #7E926C",
"*X c #81956D",
"=X c #82996E",
"-X c #859A72",
";X c #889F75",
":X c #595F81",
">X c #5F6481",
",X c #606785",
"<X c #626985",
"1X c #646A89",
"2X c #686F8A",
"3X c #686E90",
"4X c #6D7596",
/* pixels */
"P.y.6.P.3.!.0.3.1.6.6.1.y.( ' $.' %.%.$.@.-.#.#.$.k '.V.OX*X;Xt.) | g 4 5 6 | 5 @.#.@.#.#.4 #.#.&.=.",
"6.6.u.P.3.y.1.1.0.6.X.4.1.' 9.8.&.%.$.#.&.$.&.%.k [.#X].a.#XOX*Xt.4 2 @.2 @.6 5 g | ..#.=.6  .-.%.-.",
"y.6.0.` d.6. .0.y.%.o.X.1.' y.&.%. .^ @.=...#.:.Y [.+X[.}..XOX*Xn.4 g 2 6 6 4 6 6 | #.6 ..) 8.$. .) ",
"7.1.y.4.0.8.y.y.' 4.1.1.$.' 8.u.$.( $.&.%. .r.a.`.I C. X].a.C.v.&X,.@...#.| g ) 6 5 ..@.@.=.$.@.) -.",
"6.6.0.~.u.3.8.2.4.0.9.$. . .%.9.$.' 8.$.%.-.c.+XK X   J |.q   X F.t.|  .| 4 ..#.@.%.#.#.|  .@.#.g %.",
"0.u.~.u.I.0.0.4.y.w.%.%.( 0.w.` 1.%.8.$.&.:.b.OX}.w . H =XJ . c %Xt.5 @.5 5 @.#.#.@.%.6 / #.=.$.X.6 ",
"!.~.I.0.0.u.0.8.y.$.4.1.%.$.8.4.$.%. .4.-.,.z.XX{.w c S.=XF.8 J &Xt.@.) @.g 6 @.#.4 6 @.$.$.5 | 6 %.",
"!.0.I.6.0.0.0.0.6.2.` 2.$.%.&.2.4. .9.$.&.*.A.XX[.].l.C.*X Xz. X=X,.@.@.6 ' %.%.) 6 | X.#./  .=.| @.",
"!.!.3.0.2.4.y.y.' ' ' 4.8.$.e.%.$.%.2.8.2.>.m.H.[.B.S.A.@X%X#XOX*Xt.' ) ) $.) / ^ @.#.@.%.) ....@.@.",
"P.J.6.4.u.0.$.3.1.4.2.%.1.8.2.9.%.%.9.%.$.*.m.}.].+X+XC.k.oXOXOX-Xt.4 | ..4 4 5 @.@.@.#.| | 2 | ) %.",
"Y.7.[ 2.0.0.1.6.$.2.9.0.$.&.8.8.%.4.0.%.8.>.m.}.].OXXXS..XD. X+X=X,.) 5 #.) )  .@.| @.#.) | ) / ..@.",
"o.o.1.2.0.1.$.1.( w.' $.8.8.2.' 4.4.2.9.$.,.b.V.B.XX+Xc.H E H S.%X>.) | | 6 ..#.) #.) $.6 6 #.$.&.=.",
"0.5.0.0.4.4. .2. .2.4.0.8.8.0.%.%.$.4.$.2./ 1 J  X+X|.U : # # U M...) ' | -.| #.@.@.| ) ..$.=.%.| @.",
"1.1.y.6.1.4.1.%.%.2.$.2.%.8.%.$.$.$.$.8.^ & 1 h.A.oX[._.I R g.`.h 4  .g ..$.| | @.%.^ 4 ) #.%.| #.%.",
"!.u.~.4.' 4.6.y.$. .8.2.8.$.'  .' %.8.' : + : j..XA.p.i.M.v.v.;.g | 4 ....) #.$.$.| ^ 6 #.$.@.%.%. .",
"7.6.1.1.` 0.4.$.' 1.%.%.%.( ^ ^ ) %.#.& % = = < l.N.K *.:.@.:.@.#.%.5 |  .@.#.) @.) ) | ..) %.@.%.$.",
"7.3.2.o.%.X.%.4.4.4.$.' $.( ) #.&.=.: % > - - x z.N.S ' $.) ) %.=.| @.=.-.#.$.| ) @.6 ..#.$.....) @.",
"1.1.1.4.$.$.0.4.$.%.' %.4.@.$.) -.: @ > 0 0 > r n p Z @.&. .#...-.%.&.=.$.@.) 6 ) &.$.#...#.@.$.$.9.",
"y.0.4.w.1.$.e.4.%.( ) $.$.^ #.%.; + @ * 0 > 0 > - t e 5 $.@.&.)  .$.$.$.-.%.^ ..-.%.&.) %.| 8.%.9.=.",
"y.0.y.4.6.2.$.$.) 9.%.4.4.#.#.& + + + @ * 0 0 0 9 e d V C P #...%.%.#.@.%.) $.=.| #.$.%.%. .-.#. .8.",
"6.3.u.y.2.2.$.X.$.4.%.&.=.8.| + @ > = + @ * 0 > 0 > e N L L C C V P #.%.) 4  .| @.-.#.$./  ./ ) %.=.",
"7.y.y.0.1.X.$.$.8.2.$.9.$.%.; - > 0 > > = + @ = 0 0 > e e N L L L L P #. .%. .%.=. .$.) %. .$.%.-.=.",
"y.1.%.0.X.1.2.2.8.u.8.$.2.-.% - e 0 0 0 > > = @ % = - 0 0 e e e e e e i F.*X&X*Xw.#.#.8. .$.=.e.8.w.",
"0.3.2.' o.%.4.9.=.4.1.%.#.& - r N 0 0 0 > - b h.x o @ , e 0 0 0 0 0 0 K OX@XXX-X&X&.2.%.@.%.%.%.8.9.",
"4.3.X.$.1.4.&.4.0.%.$.4.#.% - r N e 0 0 0 - b l.m * e > 7 a e > > > K k.D..Xw.&.s.8.e.%. .%.9.8.&.%.",
"0.' ' 0.2.4.8.u.$.8.$.%.& > 0 0 r v e 0 0 - b l.m < y > 0 f 8.a e e G k.,.w.e.%.8.u.2.%.8.#.8.9. .%.",
"5.X.4.$.4.1.$.2.8.%.%.) % 0 > 0 0 t v - 9 9 A c.x e u > 0 f %.=.=.-.@.<.k.8.9.8.=.%.$.1.$.%.$.8.8.&.",
"X.1.1.4.w.4.%.2.0.4._ ..% - 0 0 r N 0 0 0 b j.S.H r y > 0 0 D 9.2.%.$.&.%.e.4.4.$.4.%.8.$.$.8.$.2.9.",
"! _ e.y.w.X.) 0. .$.' &.& < e e N 0 0 0 9 n z.C.N.L y > 9 9 D  .$.%.8.%.8.2.) $.X.$.) 2.$.e.$.' $.' ",
"2.2.u.4.X.' $.&.%.$.%.9.! _ M e > 0 0 0 b h.v.}.`.P y > p n g | %.8.^ %. .$. . .) ' $.$.X.&.$.$.$.%.",
"2.2.$.' $.$.$.$.4.8.9.4.~ ~ _ B r r > e m z. X}.l Z r i S.;XZ.@.=.8.&.8.%.$.%.%.%.#.$.' %.' ) $.$.@.",
"2.y.2.' ` / 8.$.y.9.$.8.W W Q ^ B B e s h. XOXT l 5 a j.OX%X-Xr.-.e.9.8.$.8.8.$.4.&.$...#. .$.$.%.8.",
" .1./ ^ %.$.8.%.8.$.$.1._ Q W ~ ~ ` s 7 n.).n.F ;.%.:.b..XOX*XZ.s.$.=.$.%.) %. .9.$.%.$.%.$.e.$.8.&.",
"$.$. .$.X.%.&.8.%.$.&.' $.~ ! ~ [ O.~ ~ { +.+.:XR.@.*.*.t. X&XZ.=.$.%.2.$.%.8.&.$.$.8.e.%.$.8.&.%.' ",
"8.$.1.$.$.#.8.=.' ) ^ $.' ~ Q ] L.+.] ] +.+.J.E.(.#.#.%.9.G.@Xq.$.e.%.%.$.' 9.%.$.s.e.%.9.e.4.%.#.' ",
"8.$.2. .' #.$.$.' ^ ) ) ' Q ~ ~ +.J.O.! ] +.+.:XU.' ..=.8.n.w.#.-.$.$.8. .%.$.%.e.u.9.8.$.4.&.w.' ' ",
"y.$.2.%.%. .%.$.' ) @.@.%.( W ~ J.J.5./ ~ O.J.E.<Xu.8.%.e.=.%.' =.$.#.%.4.9.&.8.8. .6.9.0.8.8.$.^ @.",
"9. .8.$.$.2.%.$./ $.%. .$.$.~ ] J.J.5./ ! ~ +.T.1XR.=.e.e.e. .#.8.$.@.' $.4.4.%.' &.$.4. .1.^ 4 .. .",
"8.4.2.9.$.$.=.%. .@. .%.)  .~ ~ J.J.5.@.$.Q [ +.E.2XP.8.4.4.$. . . .$.-.-.$.&.8.$.4.9.$.) ' $.'  . .",
"1.2.$.1.$.$.e.4.%.%.#.' @.' ~ ~ J.+.O.%.' Q [ J.K.1XR.4.8.%.$. . .@.%.%.) $.8.%.8.$.$.%._ / @.$. .@.",
"u.$.$.2.2.8.d.%.%.&.) 4 ^ ! ~ ~ K.E.' 4 ) ( ~ O.J.W.2XY.9.2. . .8.$.s.=. .s.%.4.' ' $.$. .8.%./ %.%.",
"d.` $.%.8.2.2.2.$.) ) $._ W ~ ~ T.>X) | 6 ' Q [ J.:X4X^.8.8.2.8.8.9.4. .%.%.$. .$.@.%.8.%.$.4.=.%.%.",
"1. .4.8.$.%.4.%.' | | ) W ~ ~ ~ J.$.| @.=.' Q [ J.L.,X2XY.9.d.e.9.4.| $.%.$.%.| ) %.w.$.4.&.8.&.8.8.",
"0.1.$.1.&.%.$.' _ X.^ ! W ~ ~ L.E.6 #.@.#.) Q [ J.+.E.4XR.9.u.9.%.( $. .$.$. .%.#.%.)  .$.%.8.4.4.8.",
"$. .2.2.$.$.%.8.4.(  .W ~ ~ J.T.<Xg @...) ' W ] J.J.:X4XY. .6.1.$.$.%.4.9.%.) #.$.&.$.@.9.4.8.%.4.8.",
"2.$. .` ' %.2.8. .4 ! W W ~ K.W.$.6 ^ 6 ..) ] +.J.J.:X^. . .2.2.o.$.4.)  .' $.$.%.8.$. .$.#.$.&.4.&.",
"9.1.=.2.%.9.4.' ^ 4 ~ ~ ~ ~ T.<X| 6 6 ) 4 $.J.J.J.J.:XR.' 8.%. .' 4.%.$. .| $.#.%.' %.%.-.$.$.2.$.%.",
"4.' 8.$.$.2.' ..$.^ ' W ! 0 B C | 4 5 g  .) 5.Q.2X6.p V N Z  .$.%.$.$.$. .4.%.) @.%.' %.=.$.8.8.4.9.",
"3.=.4.' 9.8.$.%. .) #.* i 0 0 u B | | | ..#.f ; i e 0 0 y v D =.e.9.$.$.8.9. .#.$.&.%.2.e.9.%.8.s.f.",
"1.2./ $.8.%.%.$. .%.$.$ $ $ 0 r u p 2 #.#.=.g O O O , 0 9 y u ;.4.w.8.8.8.%. .$.$.$.8.%.e.8.e.e.f.e."
};
