/* XPM */
static char *oie_sJ1diW1taqlH_3_1650893834[] = {
/* columns rows colors chars-per-pixel */
"50 50 63 1 ",
"  c black",
". c #100F17",
"X c #110F1A",
"o c #14101B",
"O c #18121E",
"+ c #181220",
"@ c #1D1B2D",
"# c #1C1A30",
"$ c #201E2C",
"% c #2B273D",
"& c #2B283D",
"* c #302E39",
"= c #2F313E",
"- c #34333D",
"; c #3A363D",
": c #3C383F",
"> c #2D3243",
", c #353542",
"< c #393742",
"1 c #363846",
"2 c #3D3A43",
"3 c #353648",
"4 c #363A4B",
"5 c #3D3D4A",
"6 c #423E44",
"7 c #483F44",
"8 c #413F4A",
"9 c #3E404D",
"0 c #3E4254",
"q c #454046",
"w c #4A4246",
"e c #45424C",
"r c #4B454C",
"t c #4E484F",
"y c #50464D",
"u c #524A4E",
"i c #5A504F",
"p c #424355",
"a c #4B4651",
"s c #474956",
"d c #4D4A52",
"f c #474958",
"g c #4D4B59",
"h c #524C53",
"j c #594F54",
"k c #524E5A",
"l c #565057",
"z c #5B5155",
"x c #55515B",
"c c #5C535A",
"v c #605456",
"b c #61565C",
"n c #655A5E",
"m c #565260",
"M c #5C5662",
"N c #565C76",
"B c #625B62",
"V c #695F65",
"C c #CE1A35",
"Z c #D01935",
"A c #FE1C42",
"S c #FE908F",
"D c #FE9091",
/* pixels */
"mxgmpVksagspx48e5rr7qupewe2;&-;<66::;:::7767q;qwty",
"ggMmsxpexd9de5jhat8eh&teeq86<N6q6;*6*7:;777wu:8uru",
"xdk4Bg8kcpp9p5lta8<q&0rCAAA86&N-:-6-::;;::w7qqur62",
"fpxdkdcx5deeeehxe<8t&paCArwA2&N6::76w6::6;76qre22u",
"ggkBxakadhlpe5aje5jeppACt8--<&0q;q666-776ywr:qqr6r",
"kcVMckkdlxde3hj1eetep0CAq22q:&06ww;8;:77w6y:2wue:2",
"BVMkgckkxedaeedhereh&prA2e<r8pp67wq:w6:8w;:6wr;2:y",
"BkMdxkjksa1deatah8he%00CAetA&00<82qq<2yr::q9q12u2q",
"BBfkadkc855hurza8tay+%przer8ppN57w622w22;qr6r678qw",
"mfggckeppdaephrjetzr8%>0e8a>p05*re-27*--q6wq66*62r",
"Mf4pkksaetjhethhahkrkt%%pp000,*7w6:;e627666y:66,8q",
"5ppfkrpp3x5etjaeahaj8hj+&0pN,<et6266626r6r6e<;ewuy",
"m8kkak5s8adhhjjerearr a+%%55&&eq82:66u6r666:6eyr6q",
"fpxg8heaed8aahpee8eh8%%$>%>>&p8u;-668w226r<;2wy6er",
"MMVg4gajeekthe58Zehe8%%%%#>%$p2:;7AwZ:qrw8;<yw8ty6",
"fg8f4jke5etee1,<Crhr8$X#%D5>$0q:wrZ66qr2q2226:rqr8",
"sda9peedaue4e<<wAjjhO.$$ASD0&p#ty68yuwr2qq:qwwq6<q",
"pppkeehhea8au8C5bczz&$$$ASDp&&peuruu8q<:2rwr8rweej",
"xhhdeacta<28e<tujzhh.$&ACDSA&&@26ew8ur;6urr2r2utju",
"xkxsdde81jttteuthcc$..&&CAA0p$$&yrrer2etqewrt2ur8h",
"ksxxdde9edetthezhbz@o&.&CAA5$&p&,8we5-86qteq<e<<tt",
"fxxja59ejaajeuuzdn@$$&$&CAA%&0C0#ywe6r6rt2e<rqqruy",
"lppj5padjcdraccxtl@$$$&$>%>%p0Ap&e8e6ytjhewj2quzhj",
"kpd5pedhaderubbhtA.C$$$&X%>f00Ap%Su268vywtrretrruh",
"ks8eadadjp8tjehdAA$#A%$$%%$ppp>>&SSreut8ztjt8rhhut",
"k54hadhcedeheerAAA$$#$$$#%$%0p5%&&SSuljrhbaajejz5r",
"p5dpleedhtaeae5AAA%$$$$$@%$0>p5>&&SSzhjhteeeeeejht",
"0esdldrpkg,ee5hCAX$$$$%$%%$p08#%&@SArzdhehadeqyeaj",
">3xjl92h5e5hzhaZZ.$$$%%$>D#5%p>%&&AAht<e9e4trje5e8",
"sycd92eddetzajacZ#$$$%%$ADD%0#%%%&&A8e88<2ee5deeee",
"aaa48eeedtlheha5.$$$$$#%ADDD8%%%&%%Aterrrre8eq28eq",
"acs512heljelhe22$$$%$$$>ZAAA0>%%%%%hehheure8r8eqth",
"5p,,reltheeeedee$$$&$$$&CCAp#>>#%%%%r4t8jer8rejwjt",
"8a88eeruredeerh>$$$$$$$$$CAp8>%%%%%%8thyr8hztehte5",
"yrr88rut55,58u%@&$$&$$&@$&0$#$%%&&%%%8jrezbrhzhrr2",
"kpa82ree2,228&@$$$&&$$#>$$@p8%%%&%%#@%8rzchhedtl52",
"zedrt8ye82qe&%@&&$&$&@#%$p0p>5%#p&%####udedjjdle<e",
"h8heeree<er&@$$$$$$$&@#%%0p&>>%%>&$#####2tehep<-e5",
"kdaj88at68%&$$$$$$$$$$#%@0p&%5>%$%%#####&dxe52e22q",
"paeerrjdt%%@$$&&$$$$$##%oO+&%%%%%%%######&ee,1ee68",
"ce8aahbr%@#@@@&$$$$$@$#%#++%&&0&%%########&e5dt<rr",
"B4eadad&#####&&@$&$$$@###++O&&&&%##########%t8dtte",
"e8ddetd&####&&$$$&$$$#%@#+++&&%&%#########@%tthtjj",
"kpeedre5321#&@$$$$$%@@%#+++O&&%&%#####@#rr28erhhdd",
"e8aaeerhd1q-2-#@$$$$@#&#+OO+&&&&%###@r5reye8jyhtdj",
"ar845rahe=<&q6q66&$$@%&#++O+&%&&@@a288e8rhe6eeetdr",
"jptarjd5,-6w66626:::;e%@++++%hr58at8868et5rtueeter",
"t8h8er5qe,8rwrw66-:66:8#++++re88te8r8yr2we8eyehudj",
"ahd5hhet85rreq6qq::6wwyuOOX1erttjjeelj8eetrtijthvb",
"ra18hyre2rey86666:*wwriwee8hjhhjdjdhtt8qeehtzhzznc"
};
