/* XPM */
static char *oie_sJ1diW1taqlH_45_1650897289[] = {
/* columns rows colors chars-per-pixel */
"50 50 214 2 ",
"   c #2F0126",
".  c #33012C",
"X  c #38002E",
"o  c #3B0033",
"O  c #35013A",
"+  c #340033",
"@  c #371339",
"#  c #2A2D38",
"$  c #302E39",
"%  c #2F323D",
"&  c #34333D",
"*  c #3A363D",
"=  c #3C383F",
"-  c #440039",
";  c #3E0043",
":  c #2D3243",
">  c #353542",
",  c #393742",
"<  c #363846",
"1  c #3D3A43",
"2  c #363A4A",
"3  c #3D3D4A",
"4  c #353648",
"5  c #3E2C46",
"6  c #4B0041",
"7  c #450049",
"8  c #49014A",
"9  c #450F40",
"0  c #53014D",
"q  c #471542",
"w  c #4B1847",
"e  c #4A0157",
"r  c #590055",
"t  c #5E005C",
"y  c #540057",
"u  c #620057",
"i  c #71005F",
"p  c #47294A",
"a  c #512A4C",
"s  c #423E45",
"d  c #493F46",
"f  c #413F4A",
"g  c #463748",
"h  c #592C54",
"j  c #443B50",
"k  c #553954",
"l  c #4B0160",
"z  c #580267",
"x  c #5E0272",
"c  c #591E7A",
"v  c #6B0065",
"b  c #63016C",
"n  c #6C016C",
"m  c #620063",
"M  c #720064",
"N  c #780169",
"B  c #6A0175",
"V  c #640178",
"C  c #750172",
"Z  c #7B0074",
"A  c #7B007D",
"S  c #76027D",
"D  c #69177B",
"F  c #5A2369",
"G  c #583A64",
"H  c #492C62",
"J  c #3E404D",
"K  c #3D4152",
"L  c #454046",
"P  c #494246",
"I  c #45424C",
"U  c #4B454C",
"Y  c #4E484F",
"T  c #50464D",
"R  c #524B4E",
"E  c #59504F",
"W  c #454452",
"Q  c #4B4651",
"!  c #474956",
"~  c #4E4A52",
"^  c #4D4B59",
"/  c #474958",
"(  c #534C53",
")  c #594F54",
"_  c #524E5A",
"`  c #524451",
"'  c #565056",
"]  c #5B5155",
"[  c #55515B",
"{  c #5B535B",
"}  c #605557",
"|  c #61565C",
" . c #65595D",
".. c #565260",
"X. c #5C5662",
"o. c #625B62",
"O. c #695F65",
"+. c #80006D",
"@. c #83017C",
"#. c #8F007C",
"$. c #810074",
"%. c #5F1D87",
"&. c #55009C",
"*. c #5C019C",
"=. c #670183",
"-. c #750182",
";. c #7C0184",
":. c #79018B",
">. c #7B0194",
",. c #76019C",
"<. c #681B9F",
"1. c #6E1885",
"2. c #632395",
"3. c #5400A2",
"4. c #5D01AC",
"5. c #5D00A6",
"6. c #5B01B0",
"7. c #6104A5",
"8. c #6500AB",
"9. c #6A08AB",
"0. c #7B01A1",
"q. c #7401AA",
"w. c #7703A4",
"e. c #6C16AF",
"r. c #6400B6",
"t. c #6D01B0",
"y. c #6508B1",
"u. c #7401B6",
"i. c #7C01B1",
"p. c #7207C7",
"a. c #8C0082",
"s. c #81018B",
"d. c #8D008C",
"f. c #950087",
"g. c #8F1689",
"h. c #850294",
"j. c #920094",
"k. c #9C0095",
"l. c #98009A",
"z. c #A10089",
"x. c #AE009C",
"c. c #A20094",
"v. c #B8009C",
"b. c #8401A2",
"n. c #8200AA",
"m. c #9701A5",
"M. c #8600B5",
"N. c #8D01B7",
"B. c #8400B8",
"V. c #B200A1",
"C. c #B400AB",
"Z. c #B900A6",
"A. c #A300B5",
"S. c #B301BC",
"D. c #B500B5",
"F. c #A712AA",
"G. c #C500AF",
"H. c #C400BA",
"J. c #CE01BD",
"K. c #C500B4",
"L. c #8702CD",
"P. c #8C00CD",
"I. c #8601C5",
"U. c #8D00DA",
"Y. c #9300DA",
"T. c #9F00D8",
"R. c #931EDE",
"E. c #9701C4",
"W. c #A401CC",
"Q. c #B401CD",
"!. c #B600C6",
"~. c #A900DB",
"^. c #A600DE",
"/. c #B901DC",
"(. c #8B00E4",
"). c #9A00E7",
"_. c #9A17E5",
"`. c #8F01F3",
"'. c #9A00F4",
"]. c #A400E2",
"[. c #A400ED",
"{. c #A900E4",
"}. c #BC00ED",
"|. c #B701E7",
" X c #A500F4",
".X c #AF29F9",
"XX c #BD32FF",
"oX c #A735EC",
"OX c #C601C2",
"+X c #CC01C2",
"@X c #C601CB",
"#X c #D301CC",
"$X c #DD00CA",
"%X c #DD03D1",
"&X c #D905D5",
"*X c #E102D5",
"=X c #CB00E7",
"-X c #DD02E4",
";X c #CE00F6",
":X c #D600F8",
">X c #F401E4",
",X c #FB00ED",
"<X c #ED00FE",
"1X c #E400F8",
"2X c #F301FC",
"3X c #FD00FD",
"4X c #FC07F8",
"5X c #FD13FF",
"6X c #E701E8",
"7X c #FF3BFF",
"8X c #BD43FD",
"9X c #CE6DFA",
"0X c #D471FF",
"qX c #FF7EFF",
/* pixels */
"..[ ^ ..!  .[ ! W ^ ! W [ 4 I I 3 U U I L R U U L L 1 > 1 & & = s s = = * * = = d P d P L * L U U T ",
"^ ^ ....^ _ W W ' ^ I ^ I 3 ( ~ ~ U L P T L U U I P f s , % s d s * $ s $ d = * d = d P T 1 s R U R ",
"[ ^ _ 2 o.~ 3 _ { W W J W 3 [ Y U 3 > I ( f P L L I U s s * P & = & s & = = * = = s P = L s R I s 1 ",
"/ W [ ~ _ ( [ [ 3 ~ W I J I ( { U < L Y U s Q 3 U U P 1 1 & s s = * d L P s = = = * d d L U P L 1 R ",
"^ Q [ o.{ Q _ ! ( _ ( W I f U _ J 3 ( U U U P U R 1 & & 1 L L L * L s s 1 & s d P P P U s s L U s P ",
"_ X.O.{ .._ ( ~ _ ' U I < ' ( 3 U I ~ U Y I ) U L 1 3 I , d , s L P & P = * P P P d P = 1 P T I s s ",
"o.O.X._ ( X._ ( [ I ~ W I I ( ~ I I I T ( ~ U ( 3 L 1 P 1 s s s d I L 1 P s = d P * = L U I & 1 = U ",
"X...X.^ [ _ _ _ ^ ~ 4 ~ I U T Q ~ I _ I U I ~ U 3 I R U L Y s * P = L L * 1 T T = = L J L 1 L R 1 L ",
"o.X./ _ W ~ [ { 3 3 3 ~ ( U ] U I U Q ( U U ( Y ] I Y f I 1 & s d P f 1 , P , , * P U L P 3 d d L P ",
"..^ ^ ^ X._ I W ! Q Q I W ( ! ( I U ) Q I f ] U I s U f L 3 1 & P P & 3 d & * , L s L L s s % s 1 U ",
"X.^ 2 ! ( _ ! Q I Q ) ( I U ( ( Q ( ( Q ( ~ ] _ ~ ] Q U 3 % & d P s 1 * U 1 s s s s s U 1 s 1 , d L ",
"2 K W Q _ W W W 4 ' f W ( ( Q I Q ( ~ ( I ( ( I I U f I > 1 I P s = s s 1 1 s P s P s P , * P U Y T ",
"..K _ _ ~ ( f Q I ! ~ ( ( ( _ I U W Q I I J ~ ~ ~ 1 > 3 % & P I d 1 , s s R s P L L s , s d T U 1 L ",
"K / _ ^ W ~ I Q U U f Q Q ( U I I I I ( 1 Y ] | W I 1 L s s s T * * s 1 d P 1 s s U , & s I U 1 U U ",
"X.X.o.~ 2 ( ~ [ f f ( ~ ( W 3 f f I ( I I I Y I 3 > 3 R s 1 1 1 * s & s s 3 L P I s > 1 U P L U T s ",
"/ ..W W 2 _ ~ W 3 W Q U I 1 > > 3 U ( U I ( ~ 3 > 3 Y I I & I = T P = s s L U 1 d 1 1 s d 1 P L U L ",
"Q ^ ! 3 W I I Y Y Y I 3 I * 1 I U ) ] ( ] ! s 1 1 ` k F 1.D F G U J L U R P P s 1 L = L P P L s , L ",
"W W I _ I I ( _ I U J U Y J I 1 ] } ] { ~ I 1 j c q.q.0.0.b.m.A.!.F.U R I L 1 = 1 Y P U s U I U P ] ",
"_ ^ ^ _ W I ] ~ Y < < I U > Y R ' { ( _ ~ H 7.8.8.q.n.N.W.Q.Q.!.S.C.+Xk T U * s R U U 1 U 1 T Q ( ( ",
"[ _ [ ~ ~ ~ I 3 < ' U Y ~ U Y Y ( { { k y.4.*.*.8.Y.^.~./.=X1X2X-XOXOXJ.P 3 I Y L P I U Y s ( P f ( ",
"_ ! { [ ~ ! I I I ~ I Y Y ' I ] ( } 2.6.3.&.8._.'.{.^.|.;X:X2X2X7X4X#X%Xg.& L s L T I I 1 f * 1 U T ",
"/ [ [ _ ! 3 I f ( Y U _ I R Y ] _ e.6.3.3.oX.X'.[.].|.:X;X1X<X2XqX5X*X*XZ.U s U R 3 P , U s L Y R ( ",
"_ ! I _ 3 W ~ ~ ( { Y U Y ] ] ' e.5.3.p.0X`.U.).).~.}./.!.l.D.6X5X4XK.%Xf.T U ] R U L ( s I T ] ( ) ",
"^ Q ~ 3 W I ~ ( ~ ~ I U R  .{ e.4.&._.9X(.L.P.B.^.b.:.h.C s.&X2X4X$X+XZ.- d } U L Y U Y I U U U ( ( ",
"^ ^ J I W Q Y ^ _ I I ~ ( I G r.5.R.8X(.Y. X[.{.N.-.b B Z @X#X3X3Xz.>X#.6 ] Q I ) ( ] Y f U ( ( T U ",
"_ 3 3 ~ ! ( ( ] I ( I ~ I j u.t.L.XXI.L.B.V n.=.h.B s.m.j.f.a.$Xz.>Xx.- h ( ) U ( } U Q ( U ) ) I U ",
"W 3 ^ W ' I I ~ ( Q U J ~ %.t.u.).I.=.,.x x x b b ;.d.d.Z M V.G.3Xz.M - ] ( ) ( T I I I I U I ( ( U ",
"K W I ~ ' ( W I _ ~ 4 U I w.w.i.,.M.N.>.V V B -.s.;.C N k.c.x.,Xv.+.- h U ] ~ ( I ( I _ I s ( I ! ( ",
": < { _ ' J 1 ( f I 3 ` { q.w.l z 0.}.>.:.:.s.S n v M #.V.J.$Xz.N o w U ( ! 1 I J 3 1 ! I ] I 3 I f ",
"Q Q { ~ J 3 I ~ ~ I U { Y x e x e t b B b t b d.h.@.C.#XH.x.#.M X w 1 U s I f f 1 3 I I 3 Y I I P U ",
"W Q W 3 f I I I ( ~ ) _ I x O ; b B b ;.s.A S A k.H.Z.k.#.@.- - a T ~ ( U U U U U U d s I I 1 I I L ",
"Q [ Q 1 3 < ( I ] ( I ( ( g O O ; 7 y t t v a.k.d.Z a.$.6   - s T ] ] ( I ` ( I ~ U I I U s I I Y ~ ",
"f Q > : U I ( U ( I I U I Y @ O 8 t m n n C Z Z N u o . q T R R ] I T I U 1 U f ) I I I U U ] I ( T ",
"f Q f I I I Y ( U I U J I ! Y 5 O + 8 r r 0 7 o . q g U U T E } T I U ~ I U ( ~ I I ( ] U I ( Y I s ",
"( f I U f U ~ Y f 1 > f f Y I : U P k p p a k k T P P T R ] ] L I ] U U I 3 ' U I ] } Y ( ' Y U I 3 ",
"( W Q f s I U I 3 > 1 1 I ( f 1 I ( s U T U P s L 3 d T R Y Y I R I I ( I U s U ] { ( ( U ~ ~ ] f 3 ",
"[ U Y U U f U I 3 s f I U s > 1 ~ 3 1 3 > ( s U I ( ( U ] R U 3 T I I Y Y ( Y ( ~ I ~ ( _ ~ ' I , I ",
"( f _ U I Q U I > L U s L I L 3 L s s , s s f Y L U R ] ] ] 3 U ( I L 3 I Y ~ U f Q U ( I I > & f f ",
"_ Q Q ( f I U U s L s U 1 I U s ( , 1 s U 1 s > U ' U ( Y ( I L L s U Y R I ~ ( I ~ [ I 1 3 I 3 s f ",
"W Q I I U U ( ( U Y P 1 I s 3 s , , 1 U d , s U ( ] T R ( I I s 3 I U U 1 U ( U ( I I P 4 > I I f L ",
"{ I I U U _ { U Q Y 1 % > , 1 1 & , 1 * s s L P  .] ( ( ( ! I f _ P } U s ] U ~ 3 3 I I 3 T U 1 U U ",
" .4 W Y ( ` Q Q I 1 1 I d 1 s & s & , s = P T R ( ] ( ( ( ( U ( ( ( ~ I U U U I s I U _ U I Y Y U U ",
"W 3 ~ ~ I U ( Q 3 s s 1 & # * 1 = & s P T U R I U Q ] I ( ( | } ( _ 1 I ~ I I s 1 U ] I Y Y ( Y ( ( ",
"_ W I W Y U I 1 4 3 < 1 & & = & & = P d U s L T ) ( ~ ) _ ) { ( U > U f f I 3 U U U 1 s I Y ~ ~ ~ ( ",
"I f Q U I I Q ( ( < s % 1 & = s = = d s 1 L E U Y ( ( ) f W ~ ! I J ! T ) U 1 P L Y I L ] Y ( Y ~ ( ",
"! I j 1 f U Q ( I : 1 # L s s s s = * = s U ( T 1 I ] ~ f 3 Q U I I ( 1 f 3 U I U ( I 3 I I I Y ~ ~ ",
"_ Q ~ ! U ( ~ f > % L L s s s = s = = = & L P I T I U ( 1 ( ! 3 3 ~ U I I 1 L U Y 3 U U T U I U I U ",
"Y 1 ( f I Q 3 f I > L U P T P s s & = s s 1 L U ~ I R ( I U f I U I I I 3 ~ U 1 L U I I Y I ( ( ~ ) ",
"! T ~ 3 ( ( I U f 1 U U U L s L L 1 s s P P T R U I f < P U Q U ] ( I I ' ) I P I Y ! T ] ] Y ( } } ",
"U Q < I ( T I U f U P Q s 3 s s 1 = # P P P E P I P s ( ) ( ( ) ~ ' ( ( R U f f I I T U ] ( ] ]  .{ "
};
